<svg width="105" height="24" viewBox="0 0 105 24" fill="none" xmlns="http://www.w3.org/2000/svg">
<path d="M78.3441 2.5H72.1656C71.75 2.5 71.3898 2.80443 71.3067 3.21956L68.8132 19.0222C68.7578 19.3266 69.0071 19.6034 69.3119 19.6034H72.4704C72.7751 19.6034 73.0245 19.382 73.0522 19.1052L73.7726 14.6218C73.828 14.2067 74.1881 13.9023 74.6314 13.9023H76.5709C80.6437 13.9023 82.971 11.9373 83.5805 8.03508C83.8576 6.34688 83.5805 4.99079 82.8047 4.04982C81.9735 3.02583 80.422 2.5 78.3441 2.5ZM79.0644 8.25648C78.7319 10.4705 77.0419 10.4705 75.4072 10.4705H74.4652L75.1302 6.34688C75.1579 6.0978 75.3795 5.90408 75.6289 5.90408H76.0445C77.1527 5.90408 78.2055 5.90407 78.7596 6.54061C79.0921 6.92806 79.1752 7.48157 79.0644 8.25648Z" fill="#009CDE"/>
<path d="M34.3747 2.5H28.1962C27.7807 2.5 27.4205 2.80443 27.3374 3.21956L24.8438 19.0222C24.7884 19.3267 25.0378 19.6034 25.3425 19.6034H28.2794C28.695 19.6034 29.0551 19.299 29.1383 18.8838L29.8032 14.6218C29.8586 14.2067 30.2188 13.9023 30.6621 13.9023H32.6015C36.6743 13.9023 39.0016 11.9373 39.6111 8.03508C39.8882 6.34688 39.6111 4.99079 38.8354 4.04982C38.0042 3.02583 36.4527 2.5 34.3747 2.5ZM35.0951 8.25649C34.7626 10.4705 33.0725 10.4705 31.4379 10.4705H30.4958L31.1608 6.34688C31.1885 6.0978 31.4102 5.90408 31.6595 5.90408H32.0751C33.1833 5.90408 34.2362 5.90408 34.7903 6.54061C35.1228 6.92807 35.2059 7.48158 35.0951 8.25649ZM52.7992 8.17346H49.8347C49.5853 8.17346 49.3637 8.36719 49.336 8.61627L49.1974 9.44653L49.0035 9.1421C48.3663 8.22881 46.9533 7.89671 45.5125 7.89671C42.2432 7.89671 39.4726 10.3598 38.9185 13.8192C38.6414 15.5351 39.0293 17.1956 40.0267 18.358C40.941 19.4097 42.2155 19.8525 43.7393 19.8525C46.3714 19.8525 47.8121 18.1643 47.8121 18.1643L47.6736 18.9945C47.6182 19.299 47.8676 19.5757 48.1723 19.5757H50.8321C51.2477 19.5757 51.6079 19.2713 51.691 18.8562L53.2979 8.75464C53.3534 8.47789 53.1317 8.17346 52.7992 8.17346ZM48.6987 13.9299C48.4217 15.6181 47.0641 16.7528 45.374 16.7528C44.5151 16.7528 43.8225 16.4761 43.3792 15.9503C42.9359 15.4244 42.7696 14.7049 42.9082 13.8746C43.1852 12.2141 44.5428 11.024 46.2052 11.024C47.0364 11.024 47.729 11.3008 48.1723 11.8266C48.6433 12.3801 48.8373 13.0997 48.6987 13.9299Z" fill="#003087"/>
<path d="M96.7686 8.17348H93.8041C93.5547 8.17348 93.3331 8.36721 93.3053 8.61629L93.1668 9.44655L92.9729 9.14212C92.3356 8.22883 90.9226 7.89673 89.4819 7.89673C86.2126 7.89673 83.442 10.3598 82.8879 13.8193C82.6108 15.5351 82.9987 17.1957 83.9961 18.358C84.9104 19.4097 86.1849 19.8525 87.7087 19.8525C90.3408 19.8525 91.7815 18.1643 91.7815 18.1643L91.643 18.9946C91.5876 19.299 91.8369 19.5758 92.1417 19.5758H94.8015C95.2171 19.5758 95.5772 19.2713 95.6604 18.8562L97.2673 8.75467C97.3227 8.47791 97.1011 8.17348 96.7686 8.17348ZM92.6681 13.93C92.391 15.6182 91.0334 16.7529 89.3434 16.7529C88.4845 16.7529 87.7918 16.4761 87.3485 15.9503C86.9052 15.4244 86.739 14.7049 86.8775 13.8746C87.1546 12.2141 88.5122 11.024 90.1746 11.024C91.0057 11.024 91.6984 11.3008 92.1417 11.8266C92.6127 12.3801 92.8066 13.0997 92.6681 13.93Z" fill="#009CDE"/>
<path d="M68.5362 8.17334H65.5717C65.2946 8.17334 65.0176 8.31172 64.8513 8.5608L60.7508 14.594L59.0053 8.80987C58.8945 8.45009 58.562 8.20102 58.1742 8.20102H55.265C54.9048 8.20102 54.6555 8.5608 54.7663 8.8929L58.0356 18.4686L54.9603 22.786C54.7109 23.1181 54.9603 23.5885 55.3758 23.5885H58.3404C58.6175 23.5885 58.8945 23.4502 59.033 23.2288L68.8964 9.0036C69.2012 8.64382 68.9518 8.17334 68.5362 8.17334Z" fill="#003087"/>
<path d="M100.26 2.91497L97.7383 18.9944C97.6829 19.2988 97.9323 19.5756 98.2371 19.5756H100.786C101.202 19.5756 101.562 19.2711 101.645 18.856L104.138 3.05335C104.194 2.74892 103.944 2.47217 103.64 2.47217H100.786C100.509 2.49984 100.287 2.6659 100.26 2.91497Z" fill="#009CDE"/>
<path d="M15.3055 5.07645C15.5503 3.52701 15.3055 2.46687 14.4693 1.50866C13.5311 0.448522 11.8587 0 9.71713 0H3.49648C3.06817 0 2.68066 0.326198 2.61947 0.754332L0.00883638 17.1865C-0.0523504 17.5127 0.212792 17.7982 0.539121 17.7982H4.37349L4.10835 19.4699C4.06756 19.7554 4.29191 20 4.57745 20H7.82034C8.20786 20 8.53419 19.7146 8.59537 19.3476L8.63616 19.1845L9.24803 15.3109L9.28882 15.107C9.35001 14.7197 9.67634 14.4546 10.0639 14.4546H10.5533C13.6943 14.4546 16.1417 13.1906 16.8556 9.50051C17.1615 7.95107 16.9984 6.66667 16.2029 5.76962C15.9582 5.50459 15.6522 5.25994 15.3055 5.07645Z" fill="#009CDE"/>
<path d="M14.9121 5.13402C15.1505 3.56701 14.9121 2.49485 14.0974 1.52577C13.1833 0.453608 11.5538 0 9.46734 0H3.4066C2.9893 0 2.61175 0.329897 2.55213 0.762887L0.00860923 17.3814C-0.0510046 17.7113 0.207322 18 0.525263 18H4.26106L5.19501 11.8144L5.17514 12C5.23476 11.567 5.59244 11.2371 6.02961 11.2371H7.81803C11.3154 11.2371 14.0576 9.7732 14.8525 5.50515L14.9121 5.13402Z" fill="#012169"/>
<path d="M6.22832 5.15464C6.26806 4.8866 6.42703 4.68041 6.64562 4.5567C6.74498 4.51546 6.8642 4.47423 6.96356 4.47423H11.7327C12.2891 4.47423 12.8256 4.51546 13.3025 4.59794C13.4416 4.61856 13.5807 4.63918 13.6999 4.68041C13.839 4.70103 13.9583 4.74227 14.0775 4.78351L14.2563 4.84536C14.4948 4.92783 14.7134 5.03093 14.9121 5.13402C15.1505 3.56701 14.9121 2.49485 14.0974 1.52577C13.1833 0.453608 11.5538 0 9.46734 0H3.4066C2.9893 0 2.61175 0.329897 2.55213 0.762887L0.00860923 17.3814C-0.0510046 17.7113 0.207322 18 0.525263 18H4.26106L5.19501 11.8144L6.22832 5.15464Z" fill="#003087"/>
</svg>
